<svg xmlns="http://www.w3.org/2000/svg" viewBox="0 0 24 24" fill="#000">
  <path d="M12 2.2c3.2 0 3.6 0 4.9.1 1.2.1 1.9.3 2.3.6.5.3.9.7 1.2 1.2.3.4.5 1.1.6 2.3.1 1.3.1 1.7.1 4.9s0 3.6-.1 4.9c-.1 1.2-.3 1.9-.6 2.3-.3.5-.7.9-1.2 1.2-.4.3-1.1.5-2.3.6-1.3.1-1.7.1-4.9.1s-3.6 0-4.9-.1c-1.2-.1-1.9-.3-2.3-.6a3.35 3.35 0 0 1-1.2-1.2c-.3-.4-.5-1.1-.6-2.3C2.2 15.6 2.2 15.2 2.2 12s0-3.6.1-4.9c.1-1.2.3-1.9.6-2.3.3-.5.7-.9 1.2-1.2.4-.3 1.1-.5 2.3-.6C8.4 2.2 8.8 2.2 12 2.2m0-2.2C8.7 0 8.3 0 7 .1 5.7.2 4.6.5 3.8 1c-.9.5-1.7 1.3-2.2 2.2-.5.8-.8 1.9-.9 3.2C.5 8.3.5 8.7.5 12s0 3.7.1 5c.1 1.3.4 2.4.9 3.2.5.9 1.3 1.7 2.2 2.2.8.5 1.9.8 3.2.9 1.3.1 1.7.1 5 .1s3.7 0 5-.1c1.3-.1 2.4-.4 3.2-.9.9-.5 1.7-1.3 2.2-2.2.5-.8.8-1.9.9-3.2.1-1.3.1-1.7.1-5s0-3.7-.1-5c-.1-1.3-.4-2.4-.9-3.2-.5-.9-1.3-1.7-2.2-2.2-.8-.5-1.9-.8-3.2-.9C15.7.1 15.3 0 12 0z"/>
  <path d="M12 5.8a6.2 6.2 0 1 0 0 12.4 6.2 6.2 0 0 0 0-12.4zm0 10.2a4 4 0 1 1 0-8 4 4 0 0 1 0 8z"/>
  <circle cx="18.4" cy="5.6" r="1.4"/>
</svg>